<svg xmlns="http://www.w3.org/2000/svg" viewBox="0 0 40 40" width="40" height="40"><rect width="40" height="40" rx="8" fill="#ffe3d4"/><g transform="translate(7.275 8.241)" fill="#fc6b19" fill-rule="nonzero"><path d="M16.898 21.419C17.45 21.419 17.899 21.866 17.899 22.418L17.899 22.519C17.899 23.071 17.45 23.519 16.898 23.519L10.181 23.519C9.629 23.519 9.181 23.071 9.181 22.519L9.181 22.418C9.181 21.866 9.628 21.419 10.181 21.419L16.898 21.419Z"/><path d="M19.351 17.06C19.903 17.06 20.35 17.507 20.35 18.059L20.35 18.159C20.35 18.712 19.903 19.159 19.351 19.159L7.12 19.159C6.568 19.159 6.121 18.711 6.121 18.159L6.121 18.06C6.121 17.508 6.568 17.06 7.12 17.06L19.351 17.06Z"/><path d="M17.715 12.659C18.267 12.659 18.716 13.106 18.716 13.658L18.716 13.758C18.716 14.31 18.268 14.758 17.716 14.758L3.243 14.758C2.691 14.758 2.244 14.31 2.244 13.758L2.244 13.658C2.244 13.106 2.691 12.659 3.243 12.659L17.715 12.659Z"/><path d="M22.18 8.111C22.732 8.111 23.18 8.558 23.18 9.11L23.18 9.21C23.18 9.762 22.732 10.21 22.18 10.21L4.919 10.21C4.367 10.21 3.92 9.762 3.92 9.21L3.92 9.11C3.92 8.558 4.367 8.111 4.919 8.111L22.18 8.111Z"/><path d="M24.45 3.751C25.002 3.751 25.45 4.199 25.45 4.751L25.45 4.852C25.45 5.404 25.002 5.851 24.45 5.851L1.001 5.851C0.449 5.851 0 5.404 0 4.852L0 4.751C0 4.199 0.448 3.751 1 3.751L24.45 3.751Z"/><path d="M12.934 0C13.486 0 13.934 0.448 13.934 1L13.934 1.1C13.934 1.652 13.486 2.1 12.934 2.1L5.935 2.1C5.383 2.1 4.936 1.652 4.936 1.1L4.936 1C4.936 0.448 5.383 0 5.935 0L12.934 0Z"/></g></svg>